# xmcd CD database file
#
# Track frame offsets:
#	150
#	10638
#	27085
#	38714
#	52996
#	63040
#	76348
#	87022
#	101269
#	111540
#	123407
#	134724
#
# Disc length: 1974 seconds
#
# Revision: 0
# Processed by: cddbd v1.5.2PL0 Copyright (c) Steve Scherf et al.
# Submitted via: CDex 1.70beta2
#
DISCID=8c07b40c
DTITLE=Various Artist - Country Blue
DYEAR=1900
DGENRE=Country
TTITLE0=Don Gibson - Lonesome Number One
TTITLE1=Slim Whitman - The Three Bells (Jimmy Brown Song)
TTITLE2=Sandy Posey - Single Girl
TTITLE3=George Jones - Wedding Bells
TTITLE4=Mickey Gilley - Fraulein
TTITLE5=Ernest Tubbs - Do What You Do, Do Well
TTITLE6=Johnny Tillotson - Send Me The Pillow You Dream On
TTITLE7=Kenny Rogers - Sunshine
TTITLE8=Jim Reeves - He'll Have To Go
TTITLE9=Guy Mitchel - Heartaches By The Number
TTITLE10=Slim Whitman - Singing The Blues
TTITLE11=Bobby Bare - Detroit City
EXTD=
EXTT0=
EXTT1=
EXTT2=
EXTT3=
EXTT4=
EXTT5=
EXTT6=
EXTT7=
EXTT8=
EXTT9=
EXTT10=
EXTT11=
PLAYORDER=
